<svg version="1.1" xmlns="http://www.w3.org/2000/svg" xmlns:xlink="http://www.w3.org/1999/xlink" width="32.98118" height="32.98318" viewBox="0,0,32.98118,32.98318"><defs><linearGradient x1="235.16543" y1="174.75464" x2="235.16543" y2="185.27277" gradientUnits="userSpaceOnUse" id="color-1"><stop offset="0" stop-color="#99ff99"/><stop offset="1" stop-color="#66ff66"/></linearGradient><linearGradient x1="244.85606" y1="174.72724" x2="244.85606" y2="185.26108" gradientUnits="userSpaceOnUse" id="color-2"><stop offset="0" stop-color="#99ff99"/><stop offset="1" stop-color="#66ff66"/></linearGradient></defs><g transform="translate(-223.50941,-163.50841)"><g data-paper-data="{&quot;isPaintingLayer&quot;:true}" stroke-miterlimit="10" stroke-dasharray="" stroke-dashoffset="0" style="mix-blend-mode: normal"><g fill="none" fill-rule="nonzero" stroke="#ffffff" stroke-width="2" stroke-linecap="butt" stroke-linejoin="miter"><path d="M232.1205,181.32063c-0.19531,-0.40424 -0.30078,-0.83988 -0.30078,-1.30692c0,-0.45134 0.08984,-0.87127 0.30078,-1.30692l1.39453,-2.79437c0.34375,-0.72214 1.03516,-1.15778 1.83203,-1.15778h2.26563c0.30078,0 0.41797,0.0314 0.57031,0.10596c0.17969,0.09027 0.32813,0.32968 0.32813,0.57301c0,0.46311 -0.28516,0.67504 -0.89844,0.67504h-2.22266c-0.34375,0 -0.52344,0.10596 -0.6875,0.41994l-1.30859,2.64523c-0.16406,0.31397 -0.23828,0.56908 -0.23828,0.88698c0,0.2708 0.04297,0.40424 0.23828,0.78101l1.29297,2.62954c0.14844,0.32967 0.35938,0.45134 0.76563,0.45134h2.16016c0.61328,0 0.89844,0.2237 0.89844,0.67504c0,0.46703 -0.28516,0.67504 -0.89844,0.67504h-2.32812c-0.73437,0 -1.42578,-0.45133 -1.76953,-1.14208zM233.51503,184.1307"/><path d="M242.89512,184.53894c-0.14844,0.5259 -0.32812,0.72214 -0.70312,0.72214c-0.35937,0 -0.66016,-0.3022 -0.66016,-0.65935c0,-0.12166 0.01563,-0.21193 0.08984,-0.43957l2.60938,-8.90901c0.08984,-0.31397 0.33203,-0.52591 0.63281,-0.52591c0.3125,0 0.57031,0.21193 0.66016,0.52591l2.58203,8.90901c0.07422,0.22763 0.07422,0.3179 0.07422,0.45134c0,0.34537 -0.30078,0.64758 -0.66016,0.64758c-0.35937,0 -0.52734,-0.19624 -0.69141,-0.72214l-0.48047,-1.57772h-3zM245.97325,181.62683l-1.10937,-3.78731l-1.11328,3.78731zM243.75059,181.62683"/></g><g fill="none" fill-rule="evenodd" stroke="#ffffff" stroke-width="1" stroke-linecap="round" stroke-linejoin="round"><path d="M255.99059,180.001c0,8.83198 -7.15961,15.98959 -15.98959,15.98959c-8.83198,0 -15.99159,-7.15761 -15.99159,-15.98959c0,-8.83198 7.15961,-15.99159 15.99159,-15.99159c8.82998,0 15.98959,7.15961 15.98959,15.99159z"/><path d="M248.22185,180.01101c0,3.47078 -0.56413,6.6815 -1.54434,9.30009c-1.48433,4.04091 -3.92488,6.6795 -6.6815,6.6795c-2.75662,0 -5.18917,-2.6386 -6.68151,-6.6795c-0.97021,-2.61858 -1.53634,-5.82931 -1.53634,-9.30009c0,-3.47278 0.56613,-6.68151 1.53634,-9.30009c1.49233,-4.06291 3.92488,-6.7015 6.68151,-6.7015c2.75662,0 5.19717,2.6386 6.6815,6.7015c0.98022,2.61858 1.54434,5.82731 1.54434,9.30009z"/><path d="M240,164.00841v31.98318"/><path d="M253.11045,180.011c0,3.47078 -0.89956,6.6815 -2.4626,9.30009c-2.36691,4.0409 -6.25855,6.67951 -10.65422,6.67951c-4.39566,0 -8.27457,-2.6386 -10.65423,-6.67951c-1.5471,-2.61858 -2.44984,-5.82931 -2.44984,-9.30009c0,-3.47278 0.90274,-6.68151 2.44984,-9.30009c2.37966,-4.06291 6.25857,-6.7015 10.65424,-6.7015c4.39566,0 8.28731,2.63859 10.65422,6.7015c1.56304,2.61858 2.4626,5.82731 2.4626,9.30009z"/><path d="M253.24536,188.53857h-26.4907"/><path d="M253.24536,171.46143h-26.4907"/><path d="M224.15094,180h31.69812"/><path d="M231.05874,193.21462h17.88251"/><path d="M231.05874,166.78539h17.88251"/></g><g fill-rule="nonzero" stroke="none" stroke-width="1" stroke-linecap="butt" stroke-linejoin="miter"><path d="M232.1205,181.32063c-0.19531,-0.40424 -0.30078,-0.83988 -0.30078,-1.30692c0,-0.45134 0.08984,-0.87127 0.30078,-1.30692l1.39453,-2.79437c0.34375,-0.72214 1.03516,-1.15778 1.83203,-1.15778h2.26563c0.30078,0 0.41797,0.0314 0.57031,0.10596c0.17969,0.09027 0.32813,0.32968 0.32813,0.57301c0,0.46311 -0.28516,0.67504 -0.89844,0.67504h-2.22266c-0.34375,0 -0.52344,0.10596 -0.6875,0.41994l-1.30859,2.64523c-0.16406,0.31397 -0.23828,0.56908 -0.23828,0.88698c0,0.2708 0.04297,0.40424 0.23828,0.78101l1.29297,2.62954c0.14844,0.32967 0.35938,0.45134 0.76563,0.45134h2.16016c0.61328,0 0.89844,0.2237 0.89844,0.67504c0,0.46703 -0.28516,0.67504 -0.89844,0.67504h-2.32812c-0.73437,0 -1.42578,-0.45133 -1.76953,-1.14208zM233.51503,184.1307" fill="url(#color-1)"/><path d="M242.89512,184.53894c-0.14844,0.5259 -0.32812,0.72214 -0.70312,0.72214c-0.35937,0 -0.66016,-0.3022 -0.66016,-0.65935c0,-0.12166 0.01563,-0.21193 0.08984,-0.43957l2.60938,-8.90901c0.08984,-0.31397 0.33203,-0.52591 0.63281,-0.52591c0.3125,0 0.57031,0.21193 0.66016,0.52591l2.58203,8.90901c0.07422,0.22763 0.07422,0.3179 0.07422,0.45134c0,0.34537 -0.30078,0.64758 -0.66016,0.64758c-0.35937,0 -0.52734,-0.19624 -0.69141,-0.72214l-0.48047,-1.57772h-3zM245.97325,181.62683l-1.10937,-3.78731l-1.11328,3.78731zM243.75059,181.62683" fill="url(#color-2)"/></g></g></g></svg>